<svg width="90" height="25" viewBox="0 0 90 25" fill="none" xmlns="http://www.w3.org/2000/svg">
<path d="M5.375 7.59375L8.17188 12.7344L11.0469 7.59375H15.8438L11.0625 15.8594L16.0625 24.5H11.25L8.20312 19.0625L5.15625 24.5H0.34375L5.34375 15.8594L0.5625 7.59375H5.375ZM22.7812 7.59375V24.5H18.2656V7.59375H22.7812ZM17.9844 3.1875C17.9844 2.53125 18.2135 1.98958 18.6719 1.5625C19.1302 1.13542 19.7448 0.921875 20.5156 0.921875C21.276 0.921875 21.8854 1.13542 22.3438 1.5625C22.8125 1.98958 23.0469 2.53125 23.0469 3.1875C23.0469 3.84375 22.8125 4.38542 22.3438 4.8125C21.8854 5.23958 21.276 5.45312 20.5156 5.45312C19.7448 5.45312 19.1302 5.23958 18.6719 4.8125C18.2135 4.38542 17.9844 3.84375 17.9844 3.1875ZM30.9062 11.2031V24.5H26.4062V7.59375H30.625L30.9062 11.2031ZM30.25 15.4531H29.0312C29.0312 14.2031 29.1927 13.0781 29.5156 12.0781C29.8385 11.0677 30.2917 10.2083 30.875 9.5C31.4583 8.78125 32.151 8.23438 32.9531 7.85938C33.7656 7.47396 34.6719 7.28125 35.6719 7.28125C36.4635 7.28125 37.1875 7.39583 37.8438 7.625C38.5 7.85417 39.0625 8.21875 39.5312 8.71875C40.0104 9.21875 40.375 9.88021 40.625 10.7031C40.8854 11.526 41.0156 12.5312 41.0156 13.7188V24.5H36.4844V13.7031C36.4844 12.9531 36.3802 12.3698 36.1719 11.9531C35.9635 11.5365 35.6562 11.2448 35.25 11.0781C34.8542 10.901 34.3646 10.8125 33.7812 10.8125C33.1771 10.8125 32.651 10.9323 32.2031 11.1719C31.7656 11.4115 31.401 11.7448 31.1094 12.1719C30.8281 12.5885 30.6146 13.0781 30.4688 13.6406C30.3229 14.2031 30.25 14.8073 30.25 15.4531ZM54.4219 20.8125V0.5H58.9531V24.5H54.875L54.4219 20.8125ZM43.7344 16.25V15.9219C43.7344 14.6302 43.8802 13.4583 44.1719 12.4062C44.4635 11.3438 44.8906 10.4323 45.4531 9.67188C46.0156 8.91146 46.7083 8.32292 47.5312 7.90625C48.3542 7.48958 49.2917 7.28125 50.3438 7.28125C51.3333 7.28125 52.1979 7.48958 52.9375 7.90625C53.6875 8.32292 54.3229 8.91667 54.8438 9.6875C55.375 10.4479 55.8021 11.349 56.125 12.3906C56.4479 13.4219 56.6823 14.5521 56.8281 15.7812V16.5C56.6823 17.6771 56.4479 18.7708 56.125 19.7812C55.8021 20.7917 55.375 21.6771 54.8438 22.4375C54.3229 23.1875 53.6875 23.7708 52.9375 24.1875C52.1875 24.6042 51.3125 24.8125 50.3125 24.8125C49.2604 24.8125 48.3229 24.599 47.5 24.1719C46.6875 23.7448 46 23.1458 45.4375 22.375C44.8854 21.6042 44.4635 20.6979 44.1719 19.6562C43.8802 18.6146 43.7344 17.4792 43.7344 16.25ZM48.2344 15.9219V16.25C48.2344 16.9479 48.2865 17.599 48.3906 18.2031C48.5052 18.8073 48.6875 19.3438 48.9375 19.8125C49.1979 20.2708 49.5312 20.6302 49.9375 20.8906C50.3542 21.1406 50.8594 21.2656 51.4531 21.2656C52.224 21.2656 52.8594 21.0938 53.3594 20.75C53.8594 20.3958 54.2396 19.9115 54.5 19.2969C54.7708 18.6823 54.9271 17.974 54.9688 17.1719V15.125C54.9375 14.4688 54.8438 13.8802 54.6875 13.3594C54.5417 12.8281 54.3229 12.375 54.0312 12C53.75 11.625 53.3958 11.3333 52.9688 11.125C52.5521 10.9167 52.0573 10.8125 51.4844 10.8125C50.901 10.8125 50.401 10.9479 49.9844 11.2188C49.5677 11.4792 49.2292 11.8385 48.9688 12.2969C48.7188 12.7552 48.5312 13.2969 48.4062 13.9219C48.2917 14.5365 48.2344 15.2031 48.2344 15.9219ZM70.25 24.8125C68.9375 24.8125 67.7604 24.6042 66.7188 24.1875C65.6771 23.7604 64.7917 23.1719 64.0625 22.4219C63.3438 21.6719 62.7917 20.8021 62.4062 19.8125C62.0208 18.8125 61.8281 17.75 61.8281 16.625V16C61.8281 14.7188 62.0104 13.5469 62.375 12.4844C62.7396 11.4219 63.2604 10.5 63.9375 9.71875C64.625 8.9375 65.4583 8.33854 66.4375 7.92188C67.4167 7.49479 68.5208 7.28125 69.75 7.28125C70.9479 7.28125 72.0104 7.47917 72.9375 7.875C73.8646 8.27083 74.6406 8.83333 75.2656 9.5625C75.901 10.2917 76.3802 11.1667 76.7031 12.1875C77.026 13.1979 77.1875 14.3229 77.1875 15.5625V17.4375H63.75V14.4375H72.7656V14.0938C72.7656 13.4688 72.651 12.9115 72.4219 12.4219C72.2031 11.9219 71.8698 11.526 71.4219 11.2344C70.974 10.9427 70.401 10.7969 69.7031 10.7969C69.1094 10.7969 68.599 10.9271 68.1719 11.1875C67.7448 11.4479 67.3958 11.8125 67.125 12.2812C66.8646 12.75 66.6667 13.3021 66.5312 13.9375C66.4062 14.5625 66.3438 15.25 66.3438 16V16.625C66.3438 17.3021 66.4375 17.9271 66.625 18.5C66.8229 19.0729 67.099 19.5677 67.4531 19.9844C67.8177 20.401 68.2552 20.724 68.7656 20.9531C69.2865 21.1823 69.875 21.2969 70.5312 21.2969C71.3438 21.2969 72.099 21.1406 72.7969 20.8281C73.5052 20.5052 74.1146 20.0208 74.625 19.375L76.8125 21.75C76.4583 22.2604 75.974 22.75 75.3594 23.2188C74.7552 23.6875 74.026 24.0729 73.1719 24.375C72.3177 24.6667 71.3438 24.8125 70.25 24.8125ZM84.25 11.2812V24.5H79.75V7.59375H83.9844L84.25 11.2812ZM89.3438 7.48438L89.2656 11.6562C89.0469 11.625 88.7812 11.599 88.4688 11.5781C88.1667 11.5469 87.8906 11.5312 87.6406 11.5312C87.0052 11.5312 86.4531 11.6146 85.9844 11.7812C85.526 11.9375 85.1406 12.1719 84.8281 12.4844C84.526 12.7969 84.2969 13.1771 84.1406 13.625C83.9948 14.0729 83.9115 14.5833 83.8906 15.1562L82.9844 14.875C82.9844 13.7812 83.0938 12.776 83.3125 11.8594C83.5312 10.9323 83.849 10.125 84.2656 9.4375C84.6927 8.75 85.2135 8.21875 85.8281 7.84375C86.4427 7.46875 87.1458 7.28125 87.9375 7.28125C88.1875 7.28125 88.4427 7.30208 88.7031 7.34375C88.9635 7.375 89.1771 7.42188 89.3438 7.48438Z" fill="white"/>
</svg>
